<svg width="62" height="62" viewBox="0 0 62 62" fill="none" xmlns="http://www.w3.org/2000/svg">
<path d="M34.9894 27.0114C32.8734 24.8962 30.004 23.708 27.0121 23.708C24.0202 23.708 21.1508 24.8962 19.0348 27.0114L11.0549 34.9887C8.93879 37.1048 7.75 39.9747 7.75 42.9673C7.75 45.9599 8.93879 48.8299 11.0549 50.9459C13.1709 53.062 16.0409 54.2508 19.0335 54.2508C22.026 54.2508 24.896 53.062 27.0121 50.9459L31.0008 46.9573" stroke="black" stroke-width="2" stroke-linecap="round" stroke-linejoin="round"/>
<path d="M27.0117 34.9885C29.1277 37.1036 31.9972 38.2918 34.9891 38.2918C37.9809 38.2918 40.8504 37.1036 42.9664 34.9885L50.9463 27.0111C53.0624 24.8951 54.2512 22.0251 54.2512 19.0325C54.2512 16.0399 53.0624 13.1699 50.9463 11.0539C48.8302 8.93781 45.9602 7.74902 42.9677 7.74902C39.9751 7.74902 37.1051 8.93781 34.9891 11.0539L31.0004 15.0425" stroke="black" stroke-width="2" stroke-linecap="round" stroke-linejoin="round"/>
</svg>
