<svg width="512" height="512" viewBox="0 0 512 512" fill="none" xmlns="http://www.w3.org/2000/svg">
<g clip-path="url(#clip0_248_17)">
<path d="M326.612 185.391C386.359 245.2 385.539 341.089 326.972 399.98C326.862 400.1 326.732 400.231 326.612 400.351L259.412 467.551C200.142 526.821 103.714 526.813 44.4525 467.551C-14.8175 408.291 -14.8175 311.851 44.4525 252.591L81.5585 215.485C91.3985 205.645 108.345 212.185 108.853 226.091C109.501 243.813 112.679 261.618 118.543 278.812C120.529 284.634 119.11 291.074 114.76 295.424L101.673 308.51C73.6465 336.536 72.7675 382.171 100.518 410.471C128.542 439.05 174.603 439.219 202.842 410.98L270.042 343.79C298.233 315.599 298.115 270.034 270.042 241.961C266.341 238.267 262.613 235.397 259.701 233.392C257.641 231.977 255.94 230.1 254.734 227.912C253.528 225.723 252.85 223.283 252.755 220.786C252.359 210.219 256.102 199.33 264.452 190.98L285.507 169.925C291.028 164.404 299.688 163.726 306.09 168.194C313.422 173.313 320.289 179.068 326.612 185.391V185.391ZM467.547 44.4485C408.286 -14.8135 311.858 -14.8215 252.588 44.4485L185.387 111.649C185.267 111.769 185.137 111.899 185.027 112.019C126.461 170.911 125.64 266.8 185.387 326.609C191.71 332.931 198.577 338.685 205.909 343.805C212.311 348.273 220.973 347.594 226.493 342.074L247.547 321.019C255.897 312.669 259.64 301.78 259.244 291.213C259.149 288.715 258.471 286.275 257.265 284.086C256.059 281.898 254.358 280.021 252.298 278.607C249.386 276.602 245.657 273.732 241.956 270.038C213.883 241.965 213.765 196.399 241.956 168.208L309.156 101.018C337.395 72.7785 383.456 72.9485 411.481 101.528C439.231 129.828 438.353 175.462 410.326 203.488L397.24 216.575C392.89 220.925 391.47 227.365 393.456 233.187C399.32 250.381 402.498 268.186 403.146 285.908C403.655 299.814 420.6 306.354 430.44 296.514L467.546 259.408C526.817 200.149 526.817 103.709 467.547 44.4485V44.4485Z" fill="#242636"/>
</g>
<defs>
<clipPath id="clip0_248_17">
<rect width="512" height="512" fill="white"/>
</clipPath>
</defs>
</svg>
