<svg width="57" height="57" viewBox="0 0 57 57" fill="none" xmlns="http://www.w3.org/2000/svg">
<path fill-rule="evenodd" clip-rule="evenodd" d="M28.5 0C12.7537 0 0 13.0763 0 29.2209C0 42.1511 8.15812 53.0724 19.4869 56.9442C20.9119 57.1999 21.4462 56.3232 21.4462 55.5562C21.4462 54.8622 21.4106 52.561 21.4106 50.1138C14.25 51.4653 12.3975 48.324 11.8275 46.6803C11.5069 45.8402 10.1175 43.2469 8.90625 42.5529C7.90875 42.005 6.48375 40.6535 8.87062 40.617C11.115 40.5805 12.7181 42.7355 13.2525 43.6122C15.8175 48.0318 19.9144 46.7899 21.5531 46.0229C21.8025 44.1235 22.5506 42.8451 23.37 42.1146C17.0288 41.3841 10.4025 38.8638 10.4025 27.6868C10.4025 24.509 11.5069 21.8791 13.3238 19.8337C13.0388 19.1031 12.0412 16.108 13.6088 12.0901C13.6088 12.0901 15.9956 11.3231 21.4462 15.0853C23.7262 14.4278 26.1487 14.0991 28.5712 14.0991C30.9937 14.0991 33.4162 14.4278 35.6962 15.0853C41.1469 11.2866 43.5337 12.0901 43.5337 12.0901C45.1012 16.108 44.1038 19.1031 43.8188 19.8337C45.6356 21.8791 46.74 24.4725 46.74 27.6868C46.74 38.9003 40.0781 41.3841 33.7369 42.1146C34.77 43.0277 35.6606 44.781 35.6606 47.5204C35.6606 51.4287 35.625 54.57 35.625 55.5562C35.625 56.3232 36.1594 57.2364 37.5844 56.9442C43.242 54.9857 48.1583 51.2575 51.6412 46.2843C55.1241 41.3111 56.9983 35.3433 57 29.2209C57 13.0763 44.2463 0 28.5 0Z" fill="#242636"/>
</svg>
